<svg width="1200" height="675" viewBox="0 0 1200 675" fill="none" xmlns="http://www.w3.org/2000/svg">
  <defs>
    <linearGradient id="bg" x1="0" y1="0" x2="1200" y2="675" gradientUnits="userSpaceOnUse">
      <stop offset="0" stop-color="#F7EEE2"/>
      <stop offset="1" stop-color="#EFE2D2"/>
    </linearGradient>
    <linearGradient id="blobA" x1="0" y1="0" x2="1" y2="1">
      <stop offset="0" stop-color="#F17E5E"/>
      <stop offset="1" stop-color="#E8B84B"/>
    </linearGradient>
    <linearGradient id="blobB" x1="0" y1="0" x2="1" y2="1">
      <stop offset="0" stop-color="#5AA3C8"/>
      <stop offset="1" stop-color="#6AAB7B"/>
    </linearGradient>
  </defs>

  <rect width="1200" height="675" fill="url(#bg)"/>

  <circle cx="1060" cy="120" r="180" fill="#E07A52" fill-opacity="0.18"/>
  <circle cx="130" cy="560" r="220" fill="#5AA3C8" fill-opacity="0.14"/>

  <rect x="130" y="92" width="940" height="490" rx="34" fill="#FFF9F1" stroke="#E5D7C8" stroke-width="2"/>

  <path d="M290 180C230 160 175 205 175 258C175 322 235 354 287 336C345 370 412 332 412 268C412 216 357 165 290 180Z" fill="url(#blobA)"/>
  <path d="M866 168C806 148 745 194 745 255C745 316 804 355 862 338C915 364 979 332 979 272C979 210 928 158 866 168Z" fill="url(#blobB)"/>

  <rect x="258" y="219" width="158" height="196" rx="20" fill="#111111"/>
  <rect x="278" y="240" width="118" height="156" rx="12" fill="#FFFFFF"/>
  <rect x="294" y="260" width="86" height="9" rx="4.5" fill="#D7D7D7"/>
  <rect x="294" y="279" width="65" height="9" rx="4.5" fill="#E6E6E6"/>
  <rect x="294" y="312" width="86" height="50" rx="10" fill="#F3EEE7"/>

  <circle cx="846" cy="229" r="44" fill="#FFD66A"/>
  <path d="M835 230L846 241L865 218" stroke="#1E1208" stroke-width="8" stroke-linecap="round" stroke-linejoin="round"/>

  <rect x="500" y="176" width="200" height="124" rx="18" fill="#FFFFFF" stroke="#EADACA" stroke-width="2"/>
  <polyline points="540,258 584,223 628,238 672,200" fill="none" stroke="#E07A52" stroke-width="8" stroke-linecap="round" stroke-linejoin="round"/>
  <circle cx="540" cy="258" r="7" fill="#E07A52"/>
  <circle cx="584" cy="223" r="7" fill="#E07A52"/>
  <circle cx="628" cy="238" r="7" fill="#E07A52"/>
  <circle cx="672" cy="200" r="7" fill="#E07A52"/>

  <rect x="500" y="332" width="200" height="124" rx="18" fill="#FFFFFF" stroke="#EADACA" stroke-width="2"/>
  <rect x="534" y="404" width="28" height="24" rx="6" fill="#5AA3C8"/>
  <rect x="577" y="380" width="28" height="48" rx="6" fill="#6AAB7B"/>
  <rect x="620" y="354" width="28" height="74" rx="6" fill="#E8B84B"/>

  <rect x="750" y="346" width="190" height="110" rx="20" fill="#FFFFFF" stroke="#EADACA" stroke-width="2"/>
  <circle cx="794" cy="401" r="18" fill="#FCE4B3"/>
  <circle cx="846" cy="401" r="18" fill="#D6F0DE"/>
  <circle cx="898" cy="401" r="18" fill="#DBEAF5"/>

  <g fill="#E8B84B">
    <circle cx="456" cy="153" r="7"/>
    <circle cx="730" cy="142" r="6"/>
    <circle cx="952" cy="303" r="8"/>
    <circle cx="448" cy="496" r="7"/>
    <circle cx="724" cy="492" r="6"/>
  </g>
</svg>
